<svg width="24" height="24" viewBox="0 0 24 24" fill="none" xmlns="http://www.w3.org/2000/svg">
<path d="M12 2C11.07 1.99911 10.1729 2.32736 9.48275 2.92102C8.7926 3.51468 8.35868 4.33139 8.26522 5.21262C8.17176 6.09385 8.42543 6.97672 8.97699 7.68983C9.52854 8.40295 10.3386 8.89544 11.25 9.07169V10.5717H8.0505C6.91801 10.5717 6.00001 11.4461 6.00001 12.5247V14.929C5.08947 15.1061 4.28039 15.5988 3.72961 16.3117C3.17883 17.0245 2.92559 17.9068 3.019 18.7874C3.1124 19.668 3.54579 20.4842 4.23514 21.0778C4.92449 21.6714 5.8207 22 6.75001 22C7.67931 22 8.57552 21.6714 9.26487 21.0778C9.95422 20.4842 10.3876 19.668 10.481 18.7874C10.5744 17.9068 10.3212 17.0245 9.7704 16.3117C9.21962 15.5988 8.41054 15.1061 7.5 14.929V12.5247C7.5 12.2347 7.746 12.0004 8.0505 12.0004H15.951C16.254 12.0004 16.5 12.2347 16.5 12.5247V14.929C15.5895 15.1061 14.7804 15.5988 14.2296 16.3117C13.6788 17.0245 13.4256 17.9068 13.519 18.7874C13.6124 19.668 14.0458 20.4842 14.7351 21.0778C15.4245 21.6714 16.3207 22 17.25 22C18.1793 22 19.0755 21.6714 19.7649 21.0778C20.4542 20.4842 20.8876 19.668 20.981 18.7874C21.0744 17.9068 20.8212 17.0245 20.2704 16.3117C19.7196 15.5988 18.9105 15.1061 18 14.929V12.5247C18 11.4461 17.082 10.5717 15.951 10.5717H12.7485V9.07169C13.6597 8.89546 14.4697 8.40308 15.0213 7.69012C15.5728 6.97715 15.8266 6.09446 15.7334 5.21333C15.6401 4.33221 15.2064 3.51551 14.5166 2.92174C13.8267 2.32796 12.9298 1.99947 12 2ZM9.75 5.57156C9.75 5.00322 9.98706 4.45815 10.409 4.05628C10.831 3.6544 11.4033 3.42863 12 3.42863C12.5967 3.42863 13.169 3.6544 13.591 4.05628C14.0129 4.45815 14.25 5.00322 14.25 5.57156C14.25 6.1399 14.0129 6.68497 13.591 7.08684C13.169 7.48872 12.5967 7.7145 12 7.7145C11.4033 7.7145 10.831 7.48872 10.409 7.08684C9.98706 6.68497 9.75 6.1399 9.75 5.57156ZM4.50001 18.4292C4.50001 17.8608 4.73706 17.3158 5.15902 16.9139C5.58097 16.512 6.15327 16.2862 6.75001 16.2862C7.34674 16.2862 7.91904 16.512 8.34099 16.9139C8.76295 17.3158 9 17.8608 9 18.4292C9 18.9975 8.76295 19.5426 8.34099 19.9445C7.91904 20.3463 7.34674 20.5721 6.75001 20.5721C6.15327 20.5721 5.58097 20.3463 5.15902 19.9445C4.73706 19.5426 4.50001 18.9975 4.50001 18.4292ZM17.25 16.2862C17.5455 16.2862 17.8381 16.3417 18.111 16.4494C18.384 16.557 18.6321 16.7149 18.841 16.9139C19.0499 17.1129 19.2157 17.3491 19.3287 17.6091C19.4418 17.8691 19.5 18.1478 19.5 18.4292C19.5 18.7106 19.4418 18.9892 19.3287 19.2492C19.2157 19.5092 19.0499 19.7455 18.841 19.9445C18.6321 20.1434 18.384 20.3013 18.111 20.409C17.8381 20.5167 17.5455 20.5721 17.25 20.5721C16.6533 20.5721 16.081 20.3463 15.659 19.9445C15.2371 19.5426 15 18.9975 15 18.4292C15 17.8608 15.2371 17.3158 15.659 16.9139C16.081 16.512 16.6533 16.2862 17.25 16.2862Z" fill="white"/>
</svg>
