<svg width="19" height="21" viewBox="0 0 19 21" fill="none" xmlns="http://www.w3.org/2000/svg">
<path d="M8 15.9999V9.99993M8 9.99993V1.40993C7.99994 1.31065 8.02452 1.21289 8.07154 1.12544C8.11856 1.03799 8.18654 0.963579 8.26939 0.908871C8.35225 0.854162 8.44739 0.820871 8.54628 0.81198C8.64517 0.80309 8.74472 0.81888 8.836 0.857933L17.28 4.47793C17.386 4.52338 17.4767 4.59843 17.5412 4.6941C17.6057 4.78977 17.6412 4.902 17.6435 5.01734C17.6458 5.13268 17.6149 5.24624 17.5543 5.34443C17.4937 5.44261 17.4061 5.52126 17.302 5.57093L8 9.99993ZM8 19.9999C11.866 19.9999 15 18.4329 15 16.4999C15 14.5669 11.866 12.9999 8 12.9999C4.134 12.9999 1 14.5669 1 16.4999C1 18.4329 4.134 19.9999 8 19.9999Z" stroke="#2E398F" stroke-width="1.5" stroke-linecap="round" stroke-linejoin="round"/>
</svg>
