<svg width="24" height="24" viewBox="0 0 24 24" fill="none" xmlns="http://www.w3.org/2000/svg">
<path d="M17.65 18.5C17.65 18.6797 17.4692 19.2058 16.346 19.7674C15.3035 20.2886 13.7689 20.65 12 20.65C10.2311 20.65 8.69648 20.2886 7.65399 19.7674C6.53075 19.2058 6.35 18.6797 6.35 18.5C6.35 18.3203 6.53075 17.7942 7.65399 17.2326C8.69648 16.7114 10.2311 16.35 12 16.35C13.7689 16.35 15.3035 16.7114 16.346 17.2326C17.4692 17.7942 17.65 18.3203 17.65 18.5Z" stroke="#2E398F" stroke-width="2.7" stroke-linecap="round" stroke-linejoin="round"/>
<path d="M12 3.40993V11.9999L21.302 7.57093C21.4061 7.52126 21.4937 7.44261 21.5543 7.34443C21.6149 7.24624 21.6458 7.13268 21.6435 7.01734C21.6412 6.902 21.6057 6.78977 21.5412 6.6941C21.4767 6.59843 21.386 6.52338 21.28 6.47793L12.836 2.85793C12.7447 2.81888 12.6452 2.80309 12.5463 2.81198C12.4474 2.82087 12.3523 2.85416 12.2694 2.90887C12.1865 2.96358 12.1186 3.03799 12.0715 3.12544C12.0245 3.21289 11.9999 3.31065 12 3.40993Z" fill="#2E398F"/>
<path d="M12 17.9999V11.9999M12 11.9999V3.40993C11.9999 3.31065 12.0245 3.21289 12.0715 3.12544C12.1186 3.03799 12.1865 2.96358 12.2694 2.90887C12.3523 2.85416 12.4474 2.82087 12.5463 2.81198C12.6452 2.80309 12.7447 2.81888 12.836 2.85793L21.28 6.47793C21.386 6.52338 21.4767 6.59843 21.5412 6.6941C21.6057 6.78977 21.6412 6.902 21.6435 7.01734C21.6458 7.13268 21.6149 7.24624 21.5543 7.34443C21.4937 7.44261 21.4061 7.52126 21.302 7.57093L12 11.9999Z" stroke="#2E398F" stroke-width="1.5" stroke-linecap="round" stroke-linejoin="round"/>
</svg>
