<svg width="24" height="24" viewBox="0 0 24 24" fill="none" xmlns="http://www.w3.org/2000/svg">
<path fill-rule="evenodd" clip-rule="evenodd" d="M7.09899 1.25H16.9C17.917 1.25 18.617 1.25 19.206 1.454C19.7565 1.64841 20.2547 1.96717 20.662 2.38551C21.0692 2.80384 21.3745 3.31047 21.554 3.866C21.75 4.463 21.749 5.173 21.749 6.226V20.374C21.749 21.84 20.022 22.712 18.885 21.671C18.8485 21.6361 18.8 21.6166 18.7495 21.6166C18.699 21.6166 18.6505 21.6361 18.614 21.671L18.13 22.113C17.202 22.963 15.796 22.963 14.868 22.113C14.7 21.9562 14.4788 21.8689 14.249 21.8689C14.0192 21.8689 13.798 21.9562 13.63 22.113C12.702 22.963 11.296 22.963 10.368 22.113C10.2 21.9562 9.97879 21.8689 9.74899 21.8689C9.51919 21.8689 9.29796 21.9562 9.12999 22.113C8.20199 22.963 6.79599 22.963 5.86799 22.113L5.38499 21.671C5.34847 21.6358 5.29972 21.6161 5.24899 21.6161C5.19827 21.6161 5.14952 21.6358 5.11299 21.671C3.97599 22.711 2.24899 21.84 2.24899 20.374V6.227C2.24899 5.173 2.24899 4.463 2.44399 3.866C2.62346 3.31044 2.92869 2.80377 3.33594 2.38543C3.74318 1.96708 4.24146 1.64834 4.79199 1.454C5.38199 1.249 6.08199 1.25 7.09899 1.25ZM7.24499 2.75C6.02399 2.75 5.60299 2.76 5.28499 2.871C4.95287 2.98977 4.65257 3.18343 4.40736 3.43697C4.16214 3.6905 3.97861 3.9971 3.87099 4.333C3.75999 4.672 3.75099 5.118 3.75099 6.37V20.374C3.75099 20.494 3.80999 20.566 3.88499 20.601C3.91921 20.6173 3.95736 20.6235 3.99499 20.619C4.03559 20.6125 4.07306 20.5932 4.10199 20.564C4.41491 20.2759 4.82468 20.116 5.24999 20.116C5.67531 20.116 6.08508 20.2759 6.39799 20.564L6.88099 21.006C7.04896 21.1628 7.27019 21.2501 7.49999 21.2501C7.72979 21.2501 7.95103 21.1628 8.11899 21.006C8.56344 20.5965 9.14566 20.3692 9.74999 20.3692C10.3543 20.3692 10.9366 20.5965 11.381 21.006C11.549 21.1628 11.7702 21.2501 12 21.2501C12.2298 21.2501 12.451 21.1628 12.619 21.006C13.0634 20.5965 13.6457 20.3692 14.25 20.3692C14.8543 20.3692 15.4366 20.5965 15.881 21.006C16.049 21.1628 16.2702 21.2501 16.5 21.2501C16.7298 21.2501 16.951 21.1628 17.119 21.006L17.602 20.564C17.9149 20.2759 18.3247 20.116 18.75 20.116C19.1753 20.116 19.5851 20.2759 19.898 20.564C19.941 20.604 19.978 20.616 20.006 20.619C20.0433 20.6234 20.0811 20.6171 20.115 20.601C20.19 20.566 20.25 20.493 20.25 20.374V6.37C20.25 5.118 20.24 4.672 20.13 4.333C20.0222 3.99686 19.8384 3.69009 19.5928 3.43653C19.3473 3.18297 19.0465 2.98944 18.714 2.871C18.397 2.761 17.976 2.751 16.755 2.751L7.24499 2.75ZM6.24999 7.5C6.24999 7.30109 6.32901 7.11032 6.46966 6.96967C6.61031 6.82902 6.80108 6.75 6.99999 6.75H7.49999C7.69891 6.75 7.88967 6.82902 8.03032 6.96967C8.17097 7.11032 8.24999 7.30109 8.24999 7.5C8.24999 7.69891 8.17097 7.88968 8.03032 8.03033C7.88967 8.17098 7.69891 8.25 7.49999 8.25H6.99999C6.80108 8.25 6.61031 8.17098 6.46966 8.03033C6.32901 7.88968 6.24999 7.69891 6.24999 7.5ZM9.74999 7.5C9.74999 7.30109 9.82901 7.11032 9.96966 6.96967C10.1103 6.82902 10.3011 6.75 10.5 6.75H17C17.1989 6.75 17.3897 6.82902 17.5303 6.96967C17.671 7.11032 17.75 7.30109 17.75 7.5C17.75 7.69891 17.671 7.88968 17.5303 8.03033C17.3897 8.17098 17.1989 8.25 17 8.25H10.5C10.3011 8.25 10.1103 8.17098 9.96966 8.03033C9.82901 7.88968 9.74999 7.69891 9.74999 7.5ZM6.24999 11C6.24999 10.8011 6.32901 10.6103 6.46966 10.4697C6.61031 10.329 6.80108 10.25 6.99999 10.25H7.49999C7.69891 10.25 7.88967 10.329 8.03032 10.4697C8.17097 10.6103 8.24999 10.8011 8.24999 11C8.24999 11.1989 8.17097 11.3897 8.03032 11.5303C7.88967 11.671 7.69891 11.75 7.49999 11.75H6.99999C6.80108 11.75 6.61031 11.671 6.46966 11.5303C6.32901 11.3897 6.24999 11.1989 6.24999 11ZM9.74999 11C9.74999 10.8011 9.82901 10.6103 9.96966 10.4697C10.1103 10.329 10.3011 10.25 10.5 10.25H17C17.1989 10.25 17.3897 10.329 17.5303 10.4697C17.671 10.6103 17.75 10.8011 17.75 11C17.75 11.1989 17.671 11.3897 17.5303 11.5303C17.3897 11.671 17.1989 11.75 17 11.75H10.5C10.3011 11.75 10.1103 11.671 9.96966 11.5303C9.82901 11.3897 9.74999 11.1989 9.74999 11ZM6.24999 14.5C6.24999 14.3011 6.32901 14.1103 6.46966 13.9697C6.61031 13.829 6.80108 13.75 6.99999 13.75H7.49999C7.69891 13.75 7.88967 13.829 8.03032 13.9697C8.17097 14.1103 8.24999 14.3011 8.24999 14.5C8.24999 14.6989 8.17097 14.8897 8.03032 15.0303C7.88967 15.171 7.69891 15.25 7.49999 15.25H6.99999C6.80108 15.25 6.61031 15.171 6.46966 15.0303C6.32901 14.8897 6.24999 14.6989 6.24999 14.5ZM9.74999 14.5C9.74999 14.3011 9.82901 14.1103 9.96966 13.9697C10.1103 13.829 10.3011 13.75 10.5 13.75H17C17.1989 13.75 17.3897 13.829 17.5303 13.9697C17.671 14.1103 17.75 14.3011 17.75 14.5C17.75 14.6989 17.671 14.8897 17.5303 15.0303C17.3897 15.171 17.1989 15.25 17 15.25H10.5C10.3011 15.25 10.1103 15.171 9.96966 15.0303C9.82901 14.8897 9.74999 14.6989 9.74999 14.5Z" fill="#2E398F"/>
</svg>
