<svg width="20" height="20" viewBox="0 0 20 20" fill="none" xmlns="http://www.w3.org/2000/svg">
<path d="M3.33334 15C3.09723 15 2.89917 14.92 2.73917 14.76C2.57917 14.6 2.49945 14.4022 2.5 14.1667C2.5 13.9306 2.58 13.7325 2.74 13.5725C2.9 13.4125 3.09778 13.3328 3.33334 13.3333H16.6667C16.9028 13.3333 17.1008 13.4133 17.2608 13.5733C17.4208 13.7333 17.5006 13.9311 17.5 14.1667C17.5 14.4028 17.42 14.6008 17.26 14.7608C17.1 14.9208 16.9022 15.0006 16.6667 15H3.33334ZM3.33334 10.8333C3.09723 10.8333 2.89917 10.7533 2.73917 10.5933C2.57917 10.4333 2.49945 10.2356 2.5 10C2.5 9.76389 2.58 9.56584 2.74 9.40584C2.9 9.24584 3.09778 9.16611 3.33334 9.16667H16.6667C16.9028 9.16667 17.1008 9.24667 17.2608 9.40667C17.4208 9.56667 17.5006 9.76445 17.5 10C17.5 10.2361 17.42 10.4342 17.26 10.5942C17.1 10.7542 16.9022 10.8339 16.6667 10.8333H3.33334ZM3.33334 6.66667C3.09723 6.66667 2.89917 6.58667 2.73917 6.42667C2.57917 6.26667 2.49945 6.06889 2.5 5.83334C2.5 5.59723 2.58 5.39917 2.74 5.23917C2.9 5.07917 3.09778 4.99945 3.33334 5H16.6667C16.9028 5 17.1008 5.08 17.2608 5.24C17.4208 5.4 17.5006 5.59778 17.5 5.83334C17.5 6.06945 17.42 6.2675 17.26 6.4275C17.1 6.5875 16.9022 6.66723 16.6667 6.66667H3.33334Z" fill="#141414"/>
</svg>
