<svg width="22" height="22" viewBox="0 0 22 22" fill="none" xmlns="http://www.w3.org/2000/svg">
<path d="M11.0002 0.666992C5.12016 0.666992 0.333496 4.85366 0.333496 10.0003C0.333496 15.147 5.12016 19.3337 11.0002 19.3337C12.1003 19.3324 13.195 19.1798 14.2535 18.8803L17.9402 21.227C18.0408 21.2916 18.157 21.3279 18.2765 21.3321C18.396 21.3364 18.5144 21.3084 18.6194 21.2511C18.7244 21.1939 18.812 21.1094 18.8731 21.0067C18.9343 20.9039 18.9666 20.7866 18.9668 20.667V16.1803C19.801 15.3801 20.4666 14.4211 20.9246 13.3598C21.3826 12.2984 21.6236 11.1562 21.6335 10.0003C21.6668 4.85366 16.8802 0.666992 11.0002 0.666992ZM16.3335 10.0003C16.3335 10.1771 16.2633 10.3467 16.1382 10.4717C16.0132 10.5968 15.8436 10.667 15.6668 10.667H6.3335C6.15668 10.667 5.98712 10.5968 5.86209 10.4717C5.73707 10.3467 5.66683 10.1771 5.66683 10.0003C5.66683 9.82351 5.73707 9.65394 5.86209 9.52892C5.98712 9.4039 6.15668 9.33366 6.3335 9.33366H15.6668C15.8436 9.33366 16.0132 9.4039 16.1382 9.52892C16.2633 9.65394 16.3335 9.82351 16.3335 10.0003ZM14.1668 13.3337C14.1668 13.5105 14.0966 13.68 13.9716 13.8051C13.8465 13.9301 13.677 14.0003 13.5002 14.0003H8.50016C8.32335 14.0003 8.15378 13.9301 8.02876 13.8051C7.90373 13.68 7.8335 13.5105 7.8335 13.3337C7.8335 13.1568 7.90373 12.9873 8.02876 12.8623C8.15378 12.7372 8.32335 12.667 8.50016 12.667H13.5002C13.677 12.667 13.8465 12.7372 13.9716 12.8623C14.0966 12.9873 14.1668 13.1568 14.1668 13.3337ZM5.8535 6.66699C5.8535 6.49018 5.92373 6.32061 6.04876 6.19559C6.17378 6.07056 6.34335 6.00033 6.52016 6.00033H15.4802C15.657 6.00033 15.8265 6.07056 15.9516 6.19559C16.0766 6.32061 16.1468 6.49018 16.1468 6.66699C16.1468 6.8438 16.0766 7.01337 15.9516 7.1384C15.8265 7.26342 15.657 7.33366 15.4802 7.33366H6.52016C6.34335 7.33366 6.17378 7.26342 6.04876 7.1384C5.92373 7.01337 5.8535 6.8438 5.8535 6.66699Z" fill="#2E398F"/>
</svg>
