<svg width="24" height="24" viewBox="0 0 24 24" fill="none" xmlns="http://www.w3.org/2000/svg">
<path d="M12 1.66675C6.12001 1.66675 1.33334 5.85341 1.33334 11.0001C1.33334 16.1467 6.12001 20.3334 12 20.3334C13.1001 20.3321 14.1948 20.1796 15.2533 19.8801L18.94 22.2267C19.0407 22.2913 19.1568 22.3276 19.2763 22.3319C19.3958 22.3361 19.5143 22.3082 19.6192 22.2509C19.7242 22.1936 19.8119 22.1092 19.873 22.0064C19.9341 21.9036 19.9665 21.7863 19.9667 21.6667V17.1801C20.8008 16.3799 21.4665 15.4209 21.9245 14.3595C22.3824 13.2982 22.6234 12.156 22.6333 11.0001C22.6667 5.85341 17.88 1.66675 12 1.66675ZM18.86 16.4067C18.793 16.4689 18.7395 16.5442 18.7028 16.6279C18.6661 16.7116 18.647 16.802 18.6467 16.8934V20.4534L15.7267 18.5934C15.6452 18.5419 15.5536 18.5087 15.4581 18.496C15.3625 18.4834 15.2654 18.4916 15.1733 18.5201C14.1458 18.8392 13.0759 19.001 12 19.0001C6.85334 19.0001 2.66668 15.4134 2.66668 11.0001C2.66668 6.58675 6.85334 3.00008 12 3.00008C17.1467 3.00008 21.3333 6.58675 21.3333 11.0001C21.3181 12.0235 21.0904 13.0325 20.6647 13.9632C20.2389 14.894 19.6244 15.7261 18.86 16.4067Z" fill="#2E398F" stroke="#2E398F" stroke-width="0.4"/>
<path d="M16.6667 10.3333H7.33332C7.15651 10.3333 6.98694 10.4035 6.86192 10.5285C6.73689 10.6535 6.66666 10.8231 6.66666 10.9999C6.66666 11.1767 6.73689 11.3463 6.86192 11.4713C6.98694 11.5963 7.15651 11.6666 7.33332 11.6666H16.6667C16.8435 11.6666 17.013 11.5963 17.1381 11.4713C17.2631 11.3463 17.3333 11.1767 17.3333 10.9999C17.3333 10.8231 17.2631 10.6535 17.1381 10.5285C17.013 10.4035 16.8435 10.3333 16.6667 10.3333Z" fill="#2E398F" stroke="#2E398F" stroke-width="0.4"/>
<path d="M14.5 13.6667H9.50001C9.3232 13.6667 9.15363 13.737 9.02861 13.862C8.90358 13.987 8.83334 14.1566 8.83334 14.3334C8.83334 14.5102 8.90358 14.6798 9.02861 14.8048C9.15363 14.9298 9.3232 15.0001 9.50001 15.0001H14.5C14.6768 15.0001 14.8464 14.9298 14.9714 14.8048C15.0964 14.6798 15.1667 14.5102 15.1667 14.3334C15.1667 14.1566 15.0964 13.987 14.9714 13.862C14.8464 13.737 14.6768 13.6667 14.5 13.6667Z" fill="#2E398F" stroke="#2E398F" stroke-width="0.4"/>
<path d="M7.52 8.33333H16.48C16.6568 8.33333 16.8264 8.2631 16.9514 8.13807C17.0764 8.01305 17.1467 7.84348 17.1467 7.66667C17.1467 7.48986 17.0764 7.32029 16.9514 7.19526C16.8264 7.07024 16.6568 7 16.48 7H7.52C7.34319 7 7.17362 7.07024 7.04859 7.19526C6.92357 7.32029 6.85333 7.48986 6.85333 7.66667C6.85333 7.84348 6.92357 8.01305 7.04859 8.13807C7.17362 8.2631 7.34319 8.33333 7.52 8.33333Z" fill="#2E398F" stroke="#2E398F" stroke-width="0.4"/>
</svg>
