<svg width="20" height="20" viewBox="0 0 20 20" fill="none" xmlns="http://www.w3.org/2000/svg">
<g clip-path="url(#clip0_9_11)">
<path d="M15.8333 8.82499V13.1667L17.3274 14.6607C17.4379 14.7712 17.5 14.9211 17.5 15.0774V15.0774C17.5 15.4028 17.2362 15.6667 16.9107 15.6667H11.6667C11.6667 16.5917 10.925 17.3333 10 17.3333C9.55797 17.3333 9.13405 17.1577 8.82149 16.8452C8.50893 16.5326 8.33333 16.1087 8.33333 15.6667H3.08926C2.76382 15.6667 2.5 15.4028 2.5 15.0774V15.0774C2.5 14.9211 2.56208 14.7712 2.67259 14.6607L4.16667 13.1667V8.16666C4.16667 5.58333 5.85833 3.30833 8.33333 2.57499V2.33333C8.33333 1.41666 9.08333 0.666661 10 0.666661C10.2392 0.666103 10.4756 0.718926 10.6918 0.821281C10.9081 0.923636 11.0988 1.07294 11.25 1.25833" stroke="#141414" stroke-width="1.4" stroke-linecap="round"/>
<path d="M14.5834 7.33333C16.1917 7.33333 17.5 6.025 17.5 4.41667C17.5 2.80833 16.1917 1.5 14.5834 1.5C12.975 1.5 11.6667 2.80833 11.6667 4.41667C11.6667 6.025 12.975 7.33333 14.5834 7.33333Z" fill="#EE4448"/>
</g>
<defs>
<clipPath id="clip0_9_11">
<rect width="20" height="20" fill="white"/>
</clipPath>
</defs>
</svg>
