<svg width="14" height="23" viewBox="0 0 14 23" fill="none" xmlns="http://www.w3.org/2000/svg">
<path d="M0.440002 1.76V2.08C0.440002 2.72 0.920002 3.2 1.56 3.2C2.04 3.2 2.36 2.88 2.52 2.4L2.84 1.6L11.8 5.28L5.56 9.6C4.92 10.08 4.92 10.72 5.08 11.36L6.52 14.72L4.44 20.96C4.12 21.76 4.76 22.4 5.4 22.4C5.88 22.4 6.2 22.24 6.36 21.6L8.6 15.2L8.76 15.68V21.28C8.76 21.28 8.76 22.4 9.88 22.4C11 22.4 11 21.28 11 21.28V16C11 15.68 11 15.52 10.84 15.2L8.6 9.76L12.92 6.72C13.24 6.4 13.56 6.24 13.56 5.76C13.56 5.28 13.24 4.96 12.92 4.8L1.4 0.160004C1.2592 0.160004 1.2112 0.188804 1.08 0.320004L0.440002 1.76ZM3.8 4.8C2.52 4.8 1.4 5.92 1.4 7.2C1.4 8.48 2.52 9.6 3.8 9.6C5.08 9.6 6.2 8.48 6.2 7.2C6.2 5.92 5.08 4.8 3.8 4.8Z" fill="white"/>
</svg>
