<svg width="18" height="20" viewBox="0 0 18 20" fill="none" xmlns="http://www.w3.org/2000/svg">
<path d="M15.0037 2.35639L16.3705 3.77239C16.4253 3.82912 16.4907 3.87451 16.563 3.90597C16.6353 3.93743 16.7131 3.95433 16.7919 3.95573C16.8707 3.95712 16.9491 3.94297 17.0224 3.91409C17.0958 3.8852 17.1628 3.84215 17.2195 3.78739C17.2762 3.73263 17.3216 3.66723 17.3531 3.59493C17.3845 3.52263 17.4014 3.44484 17.4028 3.366C17.4042 3.28716 17.3901 3.20882 17.3612 3.13545C17.3323 3.06208 17.2893 2.99512 17.2345 2.93839L15.0481 0.675192C14.9642 0.588273 14.8636 0.519147 14.7524 0.471935C14.6411 0.424722 14.5215 0.400391 14.4007 0.400391C14.2799 0.400391 14.1603 0.424722 14.049 0.471935C13.9378 0.519147 13.8372 0.588273 13.7533 0.675192L11.5693 2.93839C11.5111 2.99431 11.4648 3.06138 11.4332 3.1356C11.4015 3.20981 11.3852 3.28965 11.3851 3.37034C11.385 3.45102 11.4012 3.5309 11.4327 3.60518C11.4642 3.67946 11.5103 3.74663 11.5684 3.80266C11.6265 3.8587 11.6952 3.90245 11.7706 3.9313C11.8459 3.96015 11.9263 3.9735 12.0069 3.97056C12.0876 3.96763 12.1668 3.94846 12.2398 3.9142C12.3129 3.87994 12.3783 3.8313 12.4321 3.77119L13.8037 2.35159V7.00039C13.8037 7.15952 13.8669 7.31213 13.9794 7.42466C14.092 7.53718 14.2446 7.60039 14.4037 7.60039C14.5628 7.60039 14.7154 7.53718 14.828 7.42466C14.9405 7.31213 15.0037 7.15952 15.0037 7.00039V2.35639ZM16.3705 16.2284L15.0025 17.6444V13.0004C15.0025 12.8413 14.9393 12.6886 14.8268 12.5761C14.7142 12.4636 14.5616 12.4004 14.4025 12.4004C14.2434 12.4004 14.0908 12.4636 13.9782 12.5761C13.8657 12.6886 13.8025 12.8413 13.8025 13.0004V17.6492L12.4321 16.2296C12.3217 16.115 12.1702 16.049 12.0111 16.0461C11.852 16.0432 11.6983 16.1036 11.5837 16.214C11.4691 16.3244 11.4031 16.4759 11.4002 16.635C11.3973 16.7941 11.4577 16.9478 11.5681 17.0624L13.7533 19.3256C13.8373 19.4127 13.9379 19.482 14.0492 19.5293C14.1606 19.5766 14.2803 19.601 14.4013 19.601C14.5223 19.601 14.642 19.5766 14.7533 19.5293C14.8647 19.482 14.9653 19.4127 15.0493 19.3256L17.2333 17.0624C17.288 17.0057 17.331 16.9387 17.3598 16.8654C17.3886 16.792 17.4027 16.7137 17.4012 16.635C17.3998 16.5562 17.3828 16.4785 17.3513 16.4062C17.3198 16.334 17.2744 16.2687 17.2177 16.214C17.161 16.1593 17.094 16.1163 17.0207 16.0875C16.9473 16.0587 16.869 16.0446 16.7903 16.0461C16.7115 16.0475 16.6338 16.0645 16.5615 16.096C16.4893 16.1275 16.424 16.1729 16.3693 16.2296L16.3705 16.2284Z" fill="#2E398F"/>
<path d="M0.600098 4.00039C0.600098 3.36387 0.852954 2.75342 1.30304 2.30334C1.75313 1.85325 2.36358 1.60039 3.0001 1.60039H8.4001C8.55923 1.60039 8.71184 1.66361 8.82436 1.77613C8.93627 1.88803 8.9994 2.03959 9.00009 2.19777V17.803C8.9994 17.9612 8.93627 18.1128 8.82436 18.2247C8.71184 18.3372 8.55923 18.4004 8.4001 18.4004H3.0001C2.36358 18.4004 1.75313 18.1475 1.30304 17.6974C0.852954 17.2474 0.600098 16.6369 0.600098 16.0004V4.00039Z" fill="#2E398F"/>
<path d="M8.82436 1.77613C8.71184 1.66361 8.55923 1.60039 8.4001 1.60039H3.0001C2.36358 1.60039 1.75313 1.85325 1.30304 2.30334C0.852954 2.75342 0.600098 3.36387 0.600098 4.00039V16.0004C0.600098 16.6369 0.852954 17.2474 1.30304 17.6974C1.75313 18.1475 2.36358 18.4004 3.0001 18.4004H8.4001C8.55923 18.4004 8.71184 18.3372 8.82436 18.2247M8.82436 1.77613C8.93688 1.88865 9.0001 2.04126 9.0001 2.20039M8.82436 1.77613C8.93627 1.88803 8.9994 2.03959 9.00009 2.19777V17.803C8.9994 17.9612 8.93627 18.1128 8.82436 18.2247M9.0001 17.8004C9.0001 17.9595 8.93688 18.1121 8.82436 18.2247M15.0037 2.35639L16.3705 3.77239C16.4253 3.82912 16.4907 3.87451 16.563 3.90597C16.6353 3.93743 16.7131 3.95433 16.7919 3.95573C16.8707 3.95712 16.9491 3.94297 17.0224 3.91409C17.0958 3.8852 17.1628 3.84215 17.2195 3.78739C17.2762 3.73263 17.3216 3.66723 17.3531 3.59493C17.3845 3.52263 17.4014 3.44484 17.4028 3.366C17.4042 3.28716 17.3901 3.20882 17.3612 3.13545C17.3323 3.06208 17.2893 2.99512 17.2345 2.93839L15.0481 0.675192C14.9642 0.588273 14.8636 0.519147 14.7524 0.471935C14.6411 0.424722 14.5215 0.400391 14.4007 0.400391C14.2799 0.400391 14.1603 0.424722 14.049 0.471935C13.9378 0.519147 13.8372 0.588273 13.7533 0.675192L11.5693 2.93839C11.5111 2.99431 11.4648 3.06138 11.4332 3.1356C11.4015 3.20981 11.3852 3.28965 11.3851 3.37034C11.385 3.45102 11.4012 3.5309 11.4327 3.60518C11.4642 3.67946 11.5103 3.74663 11.5684 3.80266C11.6265 3.8587 11.6952 3.90245 11.7706 3.9313C11.8459 3.96015 11.9263 3.9735 12.0069 3.97056C12.0876 3.96763 12.1668 3.94845 12.2398 3.9142C12.3129 3.87994 12.3783 3.8313 12.4321 3.77119L13.8037 2.35159V7.00039C13.8037 7.15952 13.8669 7.31213 13.9794 7.42466C14.092 7.53718 14.2446 7.60039 14.4037 7.60039C14.5628 7.60039 14.7154 7.53718 14.828 7.42466C14.9405 7.31213 15.0037 7.15952 15.0037 7.00039V2.35639ZM16.3705 16.2284L15.0025 17.6444V13.0004C15.0025 12.8413 14.9393 12.6886 14.8268 12.5761C14.7142 12.4636 14.5616 12.4004 14.4025 12.4004C14.2434 12.4004 14.0908 12.4636 13.9782 12.5761C13.8657 12.6886 13.8025 12.8413 13.8025 13.0004V17.6492L12.4321 16.2296C12.3217 16.115 12.1702 16.049 12.0111 16.0461C11.852 16.0432 11.6983 16.1036 11.5837 16.214C11.4691 16.3244 11.4031 16.4759 11.4002 16.635C11.3973 16.7941 11.4577 16.9478 11.5681 17.0624L13.7533 19.3256C13.8373 19.4127 13.9379 19.482 14.0492 19.5293C14.1606 19.5766 14.2803 19.601 14.4013 19.601C14.5223 19.601 14.642 19.5766 14.7533 19.5293C14.8647 19.482 14.9653 19.4127 15.0493 19.3256L17.2333 17.0624C17.288 17.0057 17.331 16.9387 17.3598 16.8654C17.3886 16.792 17.4027 16.7137 17.4012 16.635C17.3998 16.5562 17.3828 16.4785 17.3513 16.4062C17.3198 16.334 17.2744 16.2687 17.2177 16.214C17.161 16.1593 17.094 16.1163 17.0207 16.0875C16.9473 16.0587 16.869 16.0446 16.7903 16.0461C16.7115 16.0475 16.6338 16.0645 16.5615 16.096C16.4893 16.1275 16.424 16.1729 16.3693 16.2296L16.3705 16.2284Z" stroke="#2E398F" stroke-width="0.4"/>
</svg>
