<svg width="18" height="20" viewBox="0 0 18 20" fill="none" xmlns="http://www.w3.org/2000/svg">
<path d="M15.0036 2.3559L16.3704 3.7719C16.4252 3.82863 16.4906 3.87402 16.5629 3.90548C16.6352 3.93694 16.713 3.95384 16.7918 3.95524C16.8706 3.95663 16.949 3.94248 17.0223 3.9136C17.0957 3.88472 17.1627 3.84167 17.2194 3.7869C17.2761 3.73214 17.3215 3.66674 17.353 3.59444C17.3844 3.52214 17.4013 3.44435 17.4027 3.36551C17.4041 3.28667 17.39 3.20833 17.3611 3.13496C17.3322 3.0616 17.2892 2.99463 17.2344 2.9379L15.048 0.674704C14.9641 0.587785 14.8635 0.518659 14.7523 0.471446C14.641 0.424234 14.5214 0.399902 14.4006 0.399902C14.2798 0.399902 14.1602 0.424234 14.049 0.471446C13.9377 0.518659 13.8371 0.587785 13.7532 0.674704L11.5692 2.9379C11.511 2.99382 11.4647 3.06089 11.4331 3.13511C11.4014 3.20932 11.3851 3.28916 11.385 3.36985C11.3849 3.45053 11.4011 3.53041 11.4326 3.60469C11.4641 3.67897 11.5103 3.74614 11.5683 3.80218C11.6264 3.85821 11.6951 3.90196 11.7705 3.93081C11.8458 3.95966 11.9262 3.97301 12.0068 3.97008C12.0875 3.96714 12.1667 3.94797 12.2397 3.91371C12.3128 3.87945 12.3782 3.83081 12.432 3.7707L13.8036 2.3511V6.9999C13.8036 7.15903 13.8668 7.31165 13.9793 7.42417C14.0919 7.53669 14.2445 7.5999 14.4036 7.5999C14.5627 7.5999 14.7153 7.53669 14.8279 7.42417C14.9404 7.31165 15.0036 7.15903 15.0036 6.9999V2.3559ZM0.600006 3.9999C0.600006 3.36338 0.852862 2.75293 1.30295 2.30285C1.75304 1.85276 2.36349 1.5999 3.00001 1.5999H8.40001C8.55914 1.5999 8.71175 1.66312 8.82427 1.77564C8.93679 1.88816 9.00001 2.04077 9.00001 2.1999C9.00001 2.35903 8.93679 2.51165 8.82427 2.62417C8.71175 2.73669 8.55914 2.7999 8.40001 2.7999H3.00001C2.68175 2.7999 2.37652 2.92633 2.15148 3.15138C1.92643 3.37642 1.80001 3.68164 1.80001 3.9999V15.9999C1.80001 16.3182 1.92643 16.6234 2.15148 16.8484C2.37652 17.0735 2.68175 17.1999 3.00001 17.1999H8.40001C8.55914 17.1999 8.71175 17.2631 8.82427 17.3756C8.93679 17.4882 9.00001 17.6408 9.00001 17.7999C9.00001 17.959 8.93679 18.1116 8.82427 18.2242C8.71175 18.3367 8.55914 18.3999 8.40001 18.3999H3.00001C2.36349 18.3999 1.75304 18.147 1.30295 17.697C0.852862 17.2469 0.600006 16.6364 0.600006 15.9999V3.9999ZM16.3704 16.2279L15.0024 17.6439V12.9999C15.0024 12.8408 14.9392 12.6882 14.8267 12.5756C14.7141 12.4631 14.5615 12.3999 14.4024 12.3999C14.2433 12.3999 14.0907 12.4631 13.9781 12.5756C13.8656 12.6882 13.8024 12.8408 13.8024 12.9999V17.6487L12.432 16.2291C12.3216 16.1145 12.1701 16.0485 12.011 16.0456C11.8519 16.0427 11.6982 16.1031 11.5836 16.2135C11.469 16.3239 11.403 16.4754 11.4001 16.6345C11.3972 16.7936 11.4576 16.9473 11.568 17.0619L13.7532 19.3251C13.8372 19.4122 13.9378 19.4815 14.0492 19.5288C14.1605 19.5761 14.2802 19.6005 14.4012 19.6005C14.5222 19.6005 14.6419 19.5761 14.7533 19.5288C14.8646 19.4815 14.9653 19.4122 15.0492 19.3251L17.2332 17.0619C17.2879 17.0052 17.3309 16.9382 17.3597 16.8649C17.3885 16.7915 17.4026 16.7133 17.4011 16.6345C17.3997 16.5557 17.3827 16.478 17.3512 16.4057C17.3197 16.3335 17.2743 16.2682 17.2176 16.2135C17.1609 16.1588 17.0939 16.1158 17.0206 16.087C16.9473 16.0582 16.869 16.0441 16.7902 16.0456C16.7114 16.047 16.6337 16.064 16.5614 16.0955C16.4892 16.127 16.4239 16.1724 16.3692 16.2291L16.3704 16.2279Z" fill="#2E398F" stroke="#2E398F" stroke-width="0.4"/>
</svg>
